<?xml version="1.0" encoding="utf-8"?>
<!-- Generator: Adobe Illustrator 17.1.0, SVG Export Plug-In . SVG Version: 6.00 Build 0)  -->
<!DOCTYPE svg PUBLIC "-//W3C//DTD SVG 1.1//EN" "http://www.w3.org/Graphics/SVG/1.1/DTD/svg11.dtd">
<svg version="1.1" id="Layer_1" xmlns="http://www.w3.org/2000/svg" xmlns:xlink="http://www.w3.org/1999/xlink" x="0px" y="0px"
	 viewBox="0 0 20 20" enable-background="new 0 0 20 20" xml:space="preserve">
<path fill="#FFFFFF" d="M19.8,16.1C19.8,16.1,19.8,16.1,19.8,16.1L13.8,10l6.1-6.1c0,0,0,0,0,0c0.1-0.1,0.1-0.1,0.1-0.2
	C20,3.5,20,3.2,19.8,3L17,0.2C16.8,0,16.5,0,16.3,0c-0.1,0-0.2,0.1-0.2,0.1c0,0,0,0,0,0L10,6.2L3.9,0.2c0,0,0,0,0,0
	C3.9,0.1,3.8,0.1,3.7,0C3.5,0,3.2,0,3,0.2L0.2,3C0,3.2,0,3.5,0,3.7c0,0.1,0.1,0.2,0.1,0.2c0,0,0,0,0,0L6.2,10l-6.1,6.1c0,0,0,0,0,0
	c-0.1,0.1-0.1,0.1-0.1,0.2C0,16.5,0,16.8,0.2,17L3,19.8C3.2,20,3.5,20,3.7,20c0.1,0,0.2-0.1,0.2-0.1c0,0,0,0,0,0l6.1-6.1l6.1,6.1
	c0,0,0,0,0,0c0.1,0.1,0.1,0.1,0.2,0.1c0.2,0.1,0.5,0,0.7-0.1l2.9-2.9c0.2-0.2,0.2-0.4,0.1-0.7C19.9,16.2,19.9,16.1,19.8,16.1
	L19.8,16.1z"/>
</svg>
